<?xml version="1.0" encoding="UTF-8"?>
<!-- Generated by Pixelmator Pro 3.0.1 -->
<svg width="128" height="128" viewBox="0 0 128 128" xmlns="http://www.w3.org/2000/svg" xmlns:xlink="http://www.w3.org/1999/xlink">
    <path id="Rectangle-arrondi-copie" fill="#000000" fill-rule="evenodd" stroke="#000000" stroke-width="10" stroke-linecap="round" stroke-linejoin="round" visibility="hidden" d="M 24.25 128 C 10.857224 128 0 117.142776 0 103.75 L 0 24.25 C 0 10.857224 10.857224 0 24.25 0 L 103.75 0 C 117.142776 0 128 10.857224 128 24.25 L 128 103.75 C 128 117.142776 117.142776 128 103.75 128 L 24.25 128 Z M 63.9375 103.375 C 85.64917 103.375 103.25 85.77417 103.25 64.0625 C 103.25 42.35083 85.64917 24.75 63.9375 24.75 C 42.22583 24.75 24.625 42.35083 24.625 64.0625 C 24.625 85.77417 42.22583 103.375 63.9375 103.375 Z"/>
    <path id="Rectangle-arrondi-copie-2" fill="none" stroke="#000000" stroke-width="10" stroke-linecap="round" stroke-linejoin="round" d="M 24.25 128 C 10.857224 128 0 117.142776 0 103.75 L 0 24.25 C 0 10.857224 10.857224 0 24.25 0 L 103.75 0 C 117.142776 0 128 10.857224 128 24.25 L 128 103.75 C 128 117.142776 117.142776 128 103.75 128 L 24.25 128 Z M 63.9375 103.375 C 85.64917 103.375 103.25 85.77417 103.25 64.0625 C 103.25 42.35083 85.64917 24.75 63.9375 24.75 C 42.22583 24.75 24.625 42.35083 24.625 64.0625 C 24.625 85.77417 42.22583 103.375 63.9375 103.375 Z"/>
</svg>
